<svg width="20" height="20" viewBox="0 0 20 20" fill="none" xmlns="http://www.w3.org/2000/svg">
<path d="M9.59961 2.50049C13.5208 2.50049 16.6992 5.67888 16.6992 9.6001C16.6992 13.5213 13.5208 16.6997 9.59961 16.6997C5.67839 16.6997 2.5 13.5213 2.5 9.6001C2.5 5.67888 5.67839 2.50049 9.59961 2.50049Z" stroke="#8892A6" stroke-width="0.8"/>
<path fill-rule="evenodd" clip-rule="evenodd" d="M11.014 12.9842C10.8909 13.1279 10.6801 13.1396 10.5433 13.0102L7.20995 9.8602C7.13971 9.79383 7.09961 9.69927 7.09961 9.60005C7.09961 9.50083 7.13972 9.40628 7.20995 9.33991L10.5433 6.18995C10.6801 6.06064 10.8909 6.07228 11.014 6.21596C11.1372 6.35964 11.1261 6.58094 10.9893 6.71025L7.93122 9.60006L10.9893 12.49C11.1261 12.6193 11.1372 12.8406 11.014 12.9842Z" fill="#8892A6"/>
</svg>
