<svg width="16" height="16" viewBox="0 0 16 16" fill="none" xmlns="http://www.w3.org/2000/svg">
<path d="M10.7988 1.3335C11.0933 1.3335 11.332 1.57221 11.332 1.8667V3.3335H12.7998C13.4624 3.33367 13.999 3.87106 13.999 4.53369V12.8003C13.999 13.4629 13.4624 14.0003 12.7998 14.0005H3.2002C2.53746 14.0005 2 13.463 2 12.8003V4.53369C2 3.87094 2.53745 3.33349 3.2002 3.3335H4.66699V1.8667C4.66706 1.57221 4.90569 1.3335 5.2002 1.3335C5.49461 1.3336 5.73333 1.57227 5.7334 1.8667V3.3335H10.2656V1.8667C10.2657 1.57225 10.5044 1.33357 10.7988 1.3335ZM3.06641 12.8003C3.06641 12.8739 3.12656 12.9341 3.2002 12.9341H12.7998C12.8733 12.9339 12.9326 12.8738 12.9326 12.8003V7.20068H3.06641V12.8003ZM5.06738 9.3335C5.43557 9.3335 5.73438 9.6323 5.73438 10.0005C5.7342 10.3685 5.43546 10.6665 5.06738 10.6665C4.69945 10.6663 4.40154 10.3684 4.40137 10.0005C4.40137 9.63241 4.69934 9.33367 5.06738 9.3335ZM8 9.3335C8.36819 9.3335 8.66699 9.6323 8.66699 10.0005C8.66682 10.3685 8.36808 10.6665 8 10.6665C7.63192 10.6665 7.33318 10.3685 7.33301 10.0005C7.33301 9.6323 7.63181 9.3335 8 9.3335ZM10.9346 9.3335C11.3028 9.3335 11.6016 9.6323 11.6016 10.0005C11.6014 10.3685 11.3027 10.6665 10.9346 10.6665C10.5666 10.6663 10.2687 10.3684 10.2686 10.0005C10.2686 9.63241 10.5665 9.33367 10.9346 9.3335ZM3.2002 4.3999C3.12656 4.3999 3.06641 4.46005 3.06641 4.53369V6.1333H12.9326V4.53369C12.9326 4.46016 12.8733 4.40008 12.7998 4.3999H3.2002Z" fill="#8892A6"/>
</svg>
