<svg width="17" height="17" viewBox="0 0 17 17" fill="none" xmlns="http://www.w3.org/2000/svg">
<path d="M9.56244 5.88338C9.56244 5.73197 9.50647 5.58677 9.40685 5.47971C9.30722 5.37265 9.17211 5.3125 9.03122 5.3125C8.89033 5.3125 8.75521 5.37265 8.65559 5.47971C8.55597 5.58677 8.5 5.73197 8.5 5.88338V9.68922C8.49996 9.78601 8.52282 9.88122 8.56644 9.96591C8.61005 10.0506 8.67298 10.122 8.74932 10.1733L10.8742 11.6005C10.9937 11.6809 11.1379 11.7069 11.2753 11.6729C11.3433 11.6561 11.4076 11.6251 11.4644 11.5816C11.5212 11.5381 11.5695 11.4829 11.6066 11.4194C11.6436 11.3558 11.6686 11.285 11.6802 11.211C11.6917 11.1371 11.6896 11.0614 11.674 10.9883C11.6583 10.9152 11.6294 10.8462 11.5889 10.7851C11.5484 10.724 11.4971 10.6721 11.438 10.6323L9.56244 9.37258V5.88338Z" fill="#8892A6"/>
<path fill-rule="evenodd" clip-rule="evenodd" d="M8.67773 2.30176C6.98698 2.30176 5.36547 2.97341 4.16993 4.16895C2.97438 5.3645 2.30273 6.986 2.30273 8.67676C2.30273 10.3675 2.97438 11.989 4.16993 13.1846C5.36547 14.3801 6.98698 15.0518 8.67773 15.0518C10.3685 15.0518 11.99 14.3801 13.1855 13.1846C14.3811 11.989 15.0527 10.3675 15.0527 8.67676C15.0527 6.986 14.3811 5.3645 13.1855 4.16895C11.99 2.97341 10.3685 2.30176 8.67773 2.30176ZM3.39559 8.67676C3.39559 7.9831 3.53222 7.29623 3.79767 6.65537C4.06312 6.01451 4.4522 5.43221 4.9427 4.94172C5.43319 4.45123 6.01549 4.06215 6.65635 3.79669C7.2972 3.53124 7.98407 3.39461 8.67773 3.39461C9.3714 3.39461 10.0583 3.53124 10.6991 3.79669C11.34 4.06215 11.9223 4.45123 12.4128 4.94172C12.9033 5.43221 13.2923 6.01451 13.5578 6.65537C13.8232 7.29623 13.9599 7.9831 13.9599 8.67676C13.9599 10.0777 13.4034 11.4212 12.4128 12.4118C11.4222 13.4024 10.0786 13.9589 8.67773 13.9589C7.27682 13.9589 5.93329 13.4024 4.9427 12.4118C3.9521 11.4212 3.39559 10.0777 3.39559 8.67676Z" fill="#8892A6"/>
</svg>
