<svg width="15" height="19" viewBox="0 0 15 19" fill="none" xmlns="http://www.w3.org/2000/svg">
<path fill-rule="evenodd" clip-rule="evenodd" d="M7.33474 1.83368C6.84842 1.83368 6.38201 2.02687 6.03813 2.37075C5.69425 2.71464 5.50105 3.18104 5.50105 3.66736H9.16842C9.16842 3.18104 8.97523 2.71464 8.63135 2.37075C8.28747 2.02687 7.82106 1.83368 7.33474 1.83368ZM4.90877 0.916841C5.55515 0.346566 6.40506 0 7.33474 0C8.26442 0 9.11341 0.346566 9.7607 0.916841H12.8358C13.3221 0.916841 13.7885 1.11003 14.1324 1.45391C14.4763 1.7978 14.6695 2.2642 14.6695 2.75052V16.5031C14.6695 16.9895 14.4763 17.4559 14.1324 17.7997C13.7885 18.1436 13.3221 18.3368 12.8358 18.3368H1.83368C1.34736 18.3368 0.880956 18.1436 0.537074 17.7997C0.193191 17.4559 0 16.9895 0 16.5031V2.75052C0 2.2642 0.193191 1.7978 0.537074 1.45391C0.880956 1.11003 1.34736 0.916841 1.83368 0.916841H4.90877ZM3.78289 2.75052H1.83368V16.5031H12.8358V2.75052H10.8866C10.9624 3.04452 11.0009 3.35014 11.0021 3.66736V4.5842C11.0021 4.82737 10.9055 5.06057 10.7336 5.23251C10.5616 5.40445 10.3284 5.50105 10.0853 5.50105H4.58421C4.34105 5.50105 4.10785 5.40445 3.93591 5.23251C3.76397 5.06057 3.66737 4.82737 3.66737 4.5842V3.66736C3.66859 3.35014 3.7071 3.04452 3.78289 2.75052ZM3.66737 8.25157C3.66737 8.00841 3.76397 7.77521 3.93591 7.60326C4.10785 7.43132 4.34105 7.33473 4.58421 7.33473H10.0853C10.3284 7.33473 10.5616 7.43132 10.7336 7.60326C10.9055 7.77521 11.0021 8.00841 11.0021 8.25157C11.0021 8.49473 10.9055 8.72793 10.7336 8.89987C10.5616 9.07181 10.3284 9.16841 10.0853 9.16841H4.58421C4.34105 9.16841 4.10785 9.07181 3.93591 8.89987C3.76397 8.72793 3.66737 8.49473 3.66737 8.25157ZM3.66737 11.9189C3.66737 11.6758 3.76397 11.4426 3.93591 11.2706C4.10785 11.0987 4.34105 11.0021 4.58421 11.0021H7.33474C7.5779 11.0021 7.8111 11.0987 7.98304 11.2706C8.15499 11.4426 8.25158 11.6758 8.25158 11.9189C8.25158 12.1621 8.15499 12.3953 7.98304 12.5672C7.8111 12.7392 7.5779 12.8358 7.33474 12.8358H4.58421C4.34105 12.8358 4.10785 12.7392 3.93591 12.5672C3.76397 12.3953 3.66737 12.1621 3.66737 11.9189Z" fill="#B7B7B7"/>
</svg>
