<svg xmlns="http://www.w3.org/2000/svg" width="13" height="13" viewBox="0 0 13 13" fill="none">
  <path d="M11.1696 8.63986C11.2401 8.71027 11.2888 8.79694 11.3105 8.88902L11.8955 11.2399C11.9442 11.424 11.8901 11.619 11.7546 11.7544C11.6517 11.8574 11.5109 11.9115 11.3701 11.9115C11.3267 11.9115 11.2834 11.9115 11.2401 11.8953L8.88922 11.3049C8.79172 11.2832 8.70505 11.2344 8.64005 11.164L3.14213 5.66611L5.67172 3.13652L11.1696 8.63986ZM2.34588 1.41402C2.78463 0.975273 3.50505 0.975273 3.9438 1.41402L4.90797 2.37819L2.37838 4.90777L1.41422 3.94361C0.975467 3.50486 0.975467 2.78986 1.41422 2.34569L2.34588 1.41402Z" fill="#757B88"/>
</svg>