<svg width="22" height="22" viewBox="0 0 22 22" fill="none" xmlns="http://www.w3.org/2000/svg">
<path d="M10.0834 6.41667V11.9167L14.85 14.7583L15.5834 13.6583L11.4584 11.1833V6.41667H10.0834ZM18.3334 11V16.5H20.1667V11H18.3334ZM18.3334 18.3333V20.1667H20.1667V18.3333H18.3334ZM16.5 18.3333C14.9417 19.525 13.1084 20.1667 11 20.1667C5.95837 20.1667 1.83337 16.0417 1.83337 11C1.83337 5.95833 5.95837 1.83333 11 1.83333C15.4 1.83333 19.1584 4.95 19.9834 9.16667H18.0584C17.2334 6.05 14.3917 3.66667 11 3.66667C6.96671 3.66667 3.66671 6.96667 3.66671 11C3.66671 15.0333 6.96671 18.3333 11 18.3333C13.2 18.3333 15.125 17.325 16.5 15.8583V18.3333Z" fill="#1D4ED8"/>
</svg>
