<svg width="8" height="6" viewBox="0 0 8 6" fill="none" xmlns="http://www.w3.org/2000/svg">
<path d="M2.64423 4.3875L6.88173 0.15C6.98173 0.0500001 7.0984 0 7.23173 0C7.36506 0 7.48173 0.0500001 7.58173 0.15C7.68173 0.25 7.73173 0.368833 7.73173 0.5065C7.73173 0.644167 7.68173 0.762834 7.58173 0.8625L2.99423 5.4625C2.89423 5.5625 2.77756 5.6125 2.64423 5.6125C2.5109 5.6125 2.39423 5.5625 2.29423 5.4625L0.144231 3.3125C0.0442308 3.2125 -0.00376923 3.09383 0.000230769 2.9565C0.00423077 2.81917 0.0563973 2.70033 0.156731 2.6C0.257064 2.49967 0.375897 2.44967 0.513231 2.45C0.650564 2.45033 0.769231 2.50033 0.869231 2.6L2.64423 4.3875Z" fill="white"/>
</svg>
