<svg width="15" height="15" viewBox="0 0 15 15" fill="none" xmlns="http://www.w3.org/2000/svg">
<path d="M3.22115 1.25H9.27885C9.63587 1.25 9.97827 1.38828 10.2307 1.63442C10.4832 1.88056 10.625 2.2144 10.625 2.5625V3.21875C10.625 3.3928 10.5541 3.55972 10.4279 3.68279C10.3016 3.80586 10.1304 3.875 9.95192 3.875C9.77341 3.875 9.60221 3.80586 9.47599 3.68279C9.34976 3.55972 9.27885 3.3928 9.27885 3.21875V2.5625H3.22115V13.0625H9.27885V12.4062C9.27885 12.2322 9.34976 12.0653 9.47599 11.9422C9.60221 11.8191 9.77341 11.75 9.95192 11.75C10.1304 11.75 10.3016 11.8191 10.4279 11.9422C10.5541 12.0653 10.625 12.2322 10.625 12.4062V13.0625C10.625 13.4106 10.4832 13.7444 10.2307 13.9906C9.97827 14.2367 9.63587 14.375 9.27885 14.375H3.22115C2.86413 14.375 2.52173 14.2367 2.26928 13.9906C2.01683 13.7444 1.875 13.4106 1.875 13.0625V2.5625C1.875 2.2144 2.01683 1.88056 2.26928 1.63442C2.52173 1.38828 2.86413 1.25 3.22115 1.25Z" fill="#1A2236"/>
<path d="M10.4969 10.1842C10.7406 10.428 11.1344 10.428 11.3781 10.1842L13.6206 7.94171C13.7378 7.8245 13.8036 7.66556 13.8036 7.49983C13.8036 7.33411 13.7378 7.17516 13.6206 7.05796L11.3781 4.81546C11.2593 4.70808 11.1038 4.65045 10.9437 4.6545C10.7836 4.65854 10.6312 4.72394 10.518 4.83717C10.4047 4.95041 10.3393 5.10283 10.3353 5.26292C10.3312 5.42301 10.3889 5.57853 10.4963 5.69733L11.6688 6.87483H6.25C6.08424 6.87483 5.92527 6.94068 5.80806 7.05789C5.69085 7.1751 5.625 7.33407 5.625 7.49983C5.625 7.66559 5.69085 7.82457 5.80806 7.94178C5.92527 8.05899 6.08424 8.12483 6.25 8.12483H11.6688L10.4963 9.30233C10.3797 9.41954 10.3144 9.57813 10.3145 9.7434C10.3146 9.90867 10.3802 10.0672 10.4969 10.1842Z" fill="#1A2236"/>
</svg>
