<svg width="15" height="15" viewBox="0 0 15 15" fill="none" xmlns="http://www.w3.org/2000/svg">
<path d="M3.02296 14.5766C2.70727 14.5766 2.43712 14.4385 2.2125 14.1624C1.98788 13.8863 1.87538 13.5539 1.875 13.1653V3.28629C1.875 2.89819 1.9875 2.56606 2.2125 2.28992C2.4375 2.01378 2.70765 1.87547 3.02296 1.875H11.0587C11.3744 1.875 11.6447 2.01331 11.8697 2.28992C12.0947 2.56653 12.207 2.89866 12.2066 3.28629V8.22581C12.2066 8.42574 12.1515 8.59345 12.0413 8.72893C11.9311 8.86442 11.7949 8.93192 11.6327 8.93145C11.4704 8.93098 11.3342 8.86324 11.224 8.72823C11.1138 8.59321 11.0587 8.42574 11.0587 8.22581V3.28629H3.02296V13.1653H6.46684C6.62946 13.1653 6.76588 13.2331 6.87608 13.3685C6.98629 13.504 7.0412 13.6715 7.04081 13.871C7.04043 14.0704 6.98533 14.2381 6.87551 14.3741C6.76569 14.51 6.62946 14.5776 6.46684 14.5766H3.02296ZM10.1116 13.2888L12.1349 10.7838C12.2497 10.6426 12.3861 10.5721 12.5441 10.5721C12.7022 10.5721 12.8384 10.6426 12.9528 10.7838C13.0672 10.9249 13.1246 11.0926 13.125 11.2869C13.1254 11.4812 13.068 11.6487 12.9528 11.7893L10.5134 14.7883C10.3986 14.9294 10.2624 15 10.1047 15C9.94706 15 9.81065 14.9294 9.69547 14.7883L8.47576 13.2888C8.37053 13.1477 8.31792 12.9802 8.31792 12.7864C8.31792 12.5926 8.37532 12.4249 8.49011 12.2833C8.60491 12.1417 8.73884 12.0711 8.8919 12.0716C9.04496 12.072 9.17889 12.1426 9.29368 12.2833L10.1116 13.2888ZM5.15357 8.77089C5.26377 8.66347 5.31888 8.5305 5.31888 8.37198C5.31888 8.21346 5.26377 8.08068 5.15357 7.97363C5.04337 7.86658 4.90714 7.81287 4.7449 7.8125C4.58265 7.81213 4.44643 7.86584 4.33622 7.97363C4.22602 8.08142 4.17092 8.21421 4.17092 8.37198C4.17092 8.52975 4.22602 8.66272 4.33622 8.77089C4.44643 8.87905 4.58265 8.93258 4.7449 8.93146C4.90714 8.93034 5.04356 8.87663 5.15414 8.77033M5.15414 5.9492C5.26397 5.84349 5.31888 5.7119 5.31888 5.55444C5.31888 5.39698 5.26377 5.2654 5.15357 5.15969C5.04337 5.05397 4.90714 5.00075 4.7449 5.00001C4.58265 4.99927 4.44643 5.05249 4.33622 5.15969C4.22602 5.26688 4.17092 5.39846 4.17092 5.55444C4.17092 5.71042 4.22602 5.8422 4.33622 5.94976C4.44643 6.05732 4.58265 6.11036 4.7449 6.10888C4.90714 6.1074 5.04356 6.05417 5.15414 5.9492ZM9.33673 8.93145C9.49936 8.93145 9.63578 8.87774 9.74598 8.77032C9.85618 8.6629 9.9111 8.53012 9.91071 8.37198C9.91033 8.21383 9.85523 8.08105 9.74541 7.97363C9.63559 7.86621 9.49936 7.8125 9.33673 7.8125H7.04081C6.87819 7.8125 6.74196 7.86621 6.63214 7.97363C6.52232 8.08105 6.46722 8.21383 6.46684 8.37198C6.46645 8.53012 6.52155 8.66309 6.63214 8.77088C6.74273 8.87868 6.87895 8.9322 7.04081 8.93145H9.33673ZM9.33673 6.10887C9.49936 6.10887 9.63578 6.05565 9.74598 5.9492C9.85618 5.84274 9.9111 5.71116 9.91071 5.55444C9.91033 5.39772 9.85523 5.26613 9.74541 5.15968C9.63559 5.05323 9.49936 5 9.33673 5H7.04081C6.87819 5 6.74196 5.05323 6.63214 5.15968C6.52232 5.26613 6.46722 5.39772 6.46684 5.55444C6.46645 5.71116 6.52155 5.84293 6.63214 5.94975C6.74273 6.05657 6.87895 6.10961 7.04081 6.10887H9.33673Z" fill="#1A2236"/>
</svg>
