<svg width="32" height="32" viewBox="0 0 32 32" fill="none" xmlns="http://www.w3.org/2000/svg">
<path d="M25.7577 18H20.591C19.9061 17.9993 19.2489 18.2702 18.7635 18.7533C18.2781 19.2365 18.0041 19.8924 18.0017 20.5773V25.744C18.0013 26.0841 18.068 26.421 18.198 26.7353C18.328 27.0496 18.5188 27.3352 18.7593 27.5757C18.9998 27.8162 19.2854 28.0069 19.5997 28.1369C19.914 28.2669 20.2509 28.3336 20.591 28.3333H25.7577C26.4423 28.3305 27.0979 28.0563 27.5808 27.571C28.0636 27.0856 28.3344 26.4286 28.3337 25.744V20.5773C28.334 20.2389 28.2676 19.9038 28.1383 19.5911C28.009 19.2784 27.8192 18.9943 27.58 18.755C27.3407 18.5157 27.0566 18.326 26.7439 18.1967C26.4312 18.0673 26.096 18.0009 25.7577 18.0013M11.4097 18H6.24299C5.55845 18.0038 4.90327 18.2785 4.42059 18.7639C3.93791 19.2493 3.66698 19.9061 3.66699 20.5906V25.7573C3.66664 26.0957 3.73303 26.4308 3.86237 26.7435C3.9917 27.0562 4.18143 27.3403 4.4207 27.5796C4.65998 27.8189 4.94409 28.0086 5.25679 28.1379C5.56948 28.2673 5.90461 28.3336 6.24299 28.3333H11.4097C12.0943 28.334 12.7513 28.0633 13.2367 27.5804C13.722 27.0975 13.9962 26.4419 13.999 25.7573V20.5906C13.9993 20.2505 13.9326 19.9136 13.8026 19.5993C13.6726 19.285 13.4819 18.9994 13.2414 18.7589C13.0009 18.5184 12.7153 18.3277 12.401 18.1977C12.0867 18.0677 11.7498 18.0009 11.4097 18.0013M11.4097 3.66663H6.24299C5.90461 3.66628 5.56948 3.73267 5.25679 3.862C4.94409 3.99133 4.65998 4.18106 4.4207 4.42034C4.18143 4.65961 3.9917 4.94373 3.86237 5.25642C3.73303 5.56911 3.66664 5.90424 3.66699 6.24263V11.4093C3.66628 12.0939 3.93703 12.7509 4.41989 13.2363C4.90276 13.7217 5.55835 13.9958 6.24299 13.9986H11.4097C11.7498 13.999 12.0867 13.9322 12.401 13.8022C12.7153 13.6722 13.0009 13.4815 13.2414 13.241C13.4819 13.0005 13.6726 12.7149 13.8026 12.4006C13.9326 12.0863 13.9993 11.7494 13.999 11.4093V6.24263C13.9962 5.55799 13.722 4.90239 13.2367 4.41953C12.7513 3.93666 12.0943 3.66592 11.4097 3.66663ZM25.7577 3.66663H20.591C19.9063 3.66592 19.2493 3.93666 18.764 4.41953C18.2786 4.90239 18.0045 5.55799 18.0017 6.24263V11.4093C18.002 12.0959 18.2749 12.7543 18.7604 13.2398C19.246 13.7254 19.9044 13.9983 20.591 13.9986H25.7577C26.4423 13.9958 27.0979 13.7217 27.5808 13.2363C28.0636 12.7509 28.3344 12.0939 28.3337 11.4093V6.24263C28.334 5.90424 28.2676 5.56911 28.1383 5.25642C28.009 4.94373 27.8192 4.65961 27.58 4.42034C27.3407 4.18106 27.0566 3.99133 26.7439 3.862C26.4312 3.73267 26.096 3.66628 25.7577 3.66663Z" stroke="#B7B7B7" stroke-width="3" stroke-linecap="round" stroke-linejoin="round"/>
</svg>
