<svg width="32" height="32" viewBox="0 0 32 32" fill="none" xmlns="http://www.w3.org/2000/svg">
<path d="M25.7577 18H20.591C19.9061 17.9993 19.2489 18.2702 18.7635 18.7534C18.2781 19.2365 18.0041 19.8925 18.0017 20.5773V25.744C18.0013 26.0841 18.068 26.421 18.198 26.7353C18.328 27.0496 18.5188 27.3352 18.7593 27.5757C18.9998 27.8162 19.2854 28.007 19.5997 28.137C19.914 28.267 20.2509 28.3337 20.591 28.3333H25.7577C26.4423 28.3305 27.0979 28.0564 27.5808 27.571C28.0636 27.0857 28.3344 26.4287 28.3337 25.744V20.5773C28.334 20.239 28.2676 19.9038 28.1383 19.5911C28.009 19.2784 27.8192 18.9943 27.58 18.7551C27.3407 18.5158 27.0566 18.326 26.7439 18.1967C26.4312 18.0674 26.096 18.001 25.7577 18.0013M11.4097 18H6.24299C5.55845 18.0039 4.90327 18.2785 4.42059 18.764C3.93791 19.2494 3.66698 19.9061 3.66699 20.5907V25.7573C3.66664 26.0957 3.73303 26.4309 3.86237 26.7435C3.9917 27.0562 4.18143 27.3404 4.4207 27.5796C4.65998 27.8189 4.94409 28.0086 5.25679 28.138C5.56948 28.2673 5.90461 28.3337 6.24299 28.3333H11.4097C12.0943 28.3341 12.7513 28.0633 13.2367 27.5804C13.722 27.0976 13.9962 26.442 13.999 25.7573V20.5907C13.9993 20.2505 13.9326 19.9137 13.8026 19.5994C13.6726 19.2851 13.4819 18.9995 13.2414 18.759C13.0009 18.5184 12.7153 18.3277 12.401 18.1977C12.0867 18.0677 11.7498 18.001 11.4097 18.0013M11.4097 3.66667H6.24299C5.90461 3.66632 5.56948 3.73271 5.25679 3.86204C4.94409 3.99138 4.65998 4.18111 4.4207 4.42038C4.18143 4.65966 3.9917 4.94377 3.86237 5.25647C3.73303 5.56916 3.66664 5.90429 3.66699 6.24267V11.4093C3.66628 12.094 3.93703 12.751 4.41989 13.2364C4.90276 13.7217 5.55835 13.9958 6.24299 13.9987H11.4097C11.7498 13.999 12.0867 13.9323 12.401 13.8023C12.7153 13.6723 13.0009 13.4816 13.2414 13.2411C13.4819 13.0005 13.6726 12.715 13.8026 12.4007C13.9326 12.0863 13.9993 11.7495 13.999 11.4093V6.24267C13.9962 5.55803 13.722 4.90244 13.2367 4.41957C12.7513 3.93671 12.0943 3.66596 11.4097 3.66667ZM25.7577 3.66667H20.591C19.9063 3.66596 19.2493 3.93671 18.764 4.41957C18.2786 4.90244 18.0045 5.55803 18.0017 6.24267V11.4093C18.002 12.096 18.2749 12.7544 18.7604 13.2399C19.246 13.7254 19.9044 13.9983 20.591 13.9987H25.7577C26.4423 13.9958 27.0979 13.7217 27.5808 13.2364C28.0636 12.751 28.3344 12.094 28.3337 11.4093V6.24267C28.334 5.90429 28.2676 5.56916 28.1383 5.25647C28.009 4.94377 27.8192 4.65966 27.58 4.42038C27.3407 4.18111 27.0566 3.99138 26.7439 3.86204C26.4312 3.73271 26.096 3.66632 25.7577 3.66667Z" stroke="#005AF0" stroke-width="3" stroke-linecap="round" stroke-linejoin="round"/>
</svg>
