<svg width="32" height="32" viewBox="0 0 32 32" fill="none" xmlns="http://www.w3.org/2000/svg">
<path d="M15 18C16.0609 18 17.0783 18.4214 17.8284 19.1716C18.5786 19.9217 19 20.9391 19 22C19 23.93 17.816 25.46 16.178 26.46C14.54 27.456 12.35 28 10 28C7.65 28 5.46 27.456 3.822 26.46C2.182 25.46 1 23.93 1 22C1 20.9391 1.42143 19.9217 2.17157 19.1716C2.92172 18.4214 3.93913 18 5 18H15ZM5 20C4.46957 20 3.96086 20.2107 3.58579 20.5858C3.21071 20.9609 3 21.4696 3 22C3 23.016 3.608 23.984 4.864 24.75C6.12 25.516 7.932 26 10 26C12.068 26 13.88 25.516 15.136 24.75C16.392 23.984 17 23.016 17 22C17 21.4696 16.7893 20.9609 16.4142 20.5858C16.0391 20.2107 15.5304 20 15 20H5ZM28.304 18.016C29.0431 18.0913 29.728 18.4381 30.226 18.9894C30.7241 19.5406 30.9999 20.2571 31 21C31 22.542 30.06 23.818 28.798 24.66C27.526 25.508 25.826 26 24 26C22.602 26 21.28 25.708 20.166 25.194C20.486 24.62 20.726 23.992 20.866 23.308C21.712 23.728 22.794 24 24 24C25.486 24 26.788 23.596 27.688 22.996C28.594 22.392 29 21.666 29 21C29 20.7695 28.9204 20.546 28.7747 20.3674C28.6289 20.1888 28.4259 20.0661 28.2 20.02L28 20H20.652C20.3968 19.2801 20.0065 18.6155 19.502 18.042C19.6659 18.0143 19.8318 18.0002 19.998 18H27.998L28.304 18.016ZM24.464 7.016C25.5732 7.13032 26.6005 7.65183 27.3475 8.47969C28.0945 9.30756 28.5079 10.383 28.508 11.498L28.484 11.958C28.3692 13.0665 27.8478 14.0931 27.0204 14.8396C26.193 15.5861 25.1184 15.9995 24.004 16L23.544 15.976C22.5137 15.8709 21.5511 15.4136 20.8188 14.6812C20.0864 13.9489 19.6291 12.9863 19.524 11.956L19.5 11.496C19.4995 10.9044 19.6156 10.3185 19.8418 9.77177C20.0679 9.22508 20.3997 8.72836 20.818 8.31002C21.2364 7.89168 21.7331 7.55994 22.2798 7.33378C22.8265 7.10761 23.4124 6.99147 24.004 6.992L24.464 7.016ZM10 5C11.4587 5 12.8576 5.57946 13.8891 6.61091C14.9205 7.64236 15.5 9.04131 15.5 10.5C15.5 11.9587 14.9205 13.3576 13.8891 14.3891C12.8576 15.4205 11.4587 16 10 16C8.54131 16 7.14236 15.4205 6.11091 14.3891C5.07946 13.3576 4.5 11.9587 4.5 10.5C4.5 9.04131 5.07946 7.64236 6.11091 6.61091C7.14236 5.57946 8.54131 5 10 5ZM24.004 8.994C23.3399 8.994 22.703 9.25781 22.2334 9.7274C21.7638 10.197 21.5 10.8339 21.5 11.498C21.5 12.1621 21.7638 12.799 22.2334 13.2686C22.703 13.7382 23.3399 14.002 24.004 14.002C24.6681 14.002 25.305 13.7382 25.7746 13.2686C26.2442 12.799 26.508 12.1621 26.508 11.498C26.508 10.8339 26.2442 10.197 25.7746 9.7274C25.305 9.25781 24.6681 8.994 24.004 8.994ZM10 7C9.07174 7 8.1815 7.36875 7.52513 8.02513C6.86875 8.6815 6.5 9.57174 6.5 10.5C6.5 11.4283 6.86875 12.3185 7.52513 12.9749C8.1815 13.6313 9.07174 14 10 14C10.9283 14 11.8185 13.6313 12.4749 12.9749C13.1313 12.3185 13.5 11.4283 13.5 10.5C13.5 9.57174 13.1313 8.6815 12.4749 8.02513C11.8185 7.36875 10.9283 7 10 7Z" fill="#B7B7B7"/>
</svg>
