<svg width="45" height="45" viewBox="0 0 45 45" fill="none" xmlns="http://www.w3.org/2000/svg">
<path fill-rule="evenodd" clip-rule="evenodd" d="M30 16.875C30 18.8641 29.2098 20.7718 27.8033 22.1783C26.3968 23.5848 24.4891 24.375 22.5 24.375C20.5109 24.375 18.6032 23.5848 17.1967 22.1783C15.7902 20.7718 15 18.8641 15 16.875C15 14.8859 15.7902 12.9782 17.1967 11.5717C18.6032 10.1652 20.5109 9.375 22.5 9.375C24.4891 9.375 26.3968 10.1652 27.8033 11.5717C29.2098 12.9782 30 14.8859 30 16.875ZM26.25 16.875C26.25 17.8696 25.8549 18.8234 25.1516 19.5266C24.4484 20.2299 23.4946 20.625 22.5 20.625C21.5054 20.625 20.5516 20.2299 19.8484 19.5266C19.1451 18.8234 18.75 17.8696 18.75 16.875C18.75 15.8804 19.1451 14.9266 19.8484 14.2233C20.5516 13.5201 21.5054 13.125 22.5 13.125C23.4946 13.125 24.4484 13.5201 25.1516 14.2233C25.8549 14.9266 26.25 15.8804 26.25 16.875Z" fill="#C2C4C6"/>
<path fill-rule="evenodd" clip-rule="evenodd" d="M22.5 1.875C11.1094 1.875 1.875 11.1094 1.875 22.5C1.875 33.8906 11.1094 43.125 22.5 43.125C33.8906 43.125 43.125 33.8906 43.125 22.5C43.125 11.1094 33.8906 1.875 22.5 1.875ZM5.625 22.5C5.625 26.4188 6.96187 30.0262 9.2025 32.8913C10.7765 30.8252 12.8065 29.1509 15.1343 27.9989C17.4621 26.8468 20.0246 26.2483 22.6219 26.25C25.1857 26.247 27.7164 26.8296 30.0209 27.9532C32.3254 29.0769 34.3428 30.7119 35.9194 32.7337C37.544 30.603 38.6378 28.116 39.1104 25.4786C39.583 22.8412 39.4208 20.1291 38.6372 17.5668C37.8535 15.0046 36.471 12.6657 34.604 10.7438C32.737 8.82193 30.4392 7.37224 27.9007 6.5147C25.3622 5.65717 22.656 5.41645 20.006 5.81245C17.356 6.20845 14.8384 7.2298 12.6614 8.79198C10.4845 10.3542 8.7109 12.4123 7.4873 14.796C6.26371 17.1797 5.62534 19.8206 5.625 22.5ZM22.5 39.375C18.6261 39.3813 14.869 38.0486 11.865 35.6025C13.074 33.8712 14.6835 32.4576 16.5564 31.4821C18.4293 30.5066 20.5102 29.9982 22.6219 30C24.7072 29.9982 26.7629 30.494 28.6181 31.4462C30.4733 32.3984 32.0745 33.7796 33.2887 35.475C30.2615 38.0006 26.4425 39.3812 22.5 39.375Z" fill="#C2C4C6"/>
</svg>
