<svg width="26" height="32" viewBox="0 0 26 32" fill="none" xmlns="http://www.w3.org/2000/svg">
<path fill-rule="evenodd" clip-rule="evenodd" d="M13 3.2C12.138 3.2 11.3114 3.53714 10.7019 4.13726C10.0924 4.73737 9.75 5.55131 9.75 6.4H16.25C16.25 5.55131 15.9076 4.73737 15.2981 4.13726C14.6886 3.53714 13.862 3.2 13 3.2ZM8.70025 1.6C9.84587 0.6048 11.3523 0 13 0C14.6477 0 16.1525 0.6048 17.2997 1.6H22.75C23.612 1.6 24.4386 1.93714 25.0481 2.53726C25.6576 3.13737 26 3.95131 26 4.8V28.8C26 29.6487 25.6576 30.4626 25.0481 31.0627C24.4386 31.6629 23.612 32 22.75 32H3.25C2.38805 32 1.5614 31.6629 0.951903 31.0627C0.34241 30.4626 0 29.6487 0 28.8V4.8C0 3.95131 0.34241 3.13737 0.951903 2.53726C1.5614 1.93714 2.38805 1.6 3.25 1.6H8.70025ZM6.70475 4.8H3.25V28.8H22.75V4.8H19.2952C19.4296 5.31307 19.4978 5.8464 19.5 6.4V8C19.5 8.42435 19.3288 8.83131 19.024 9.13137C18.7193 9.43143 18.306 9.6 17.875 9.6H8.125C7.69402 9.6 7.2807 9.43143 6.97595 9.13137C6.67121 8.83131 6.5 8.42435 6.5 8V6.4C6.50217 5.8464 6.57042 5.31307 6.70475 4.8ZM6.5 14.4C6.5 13.9757 6.67121 13.5687 6.97595 13.2686C7.2807 12.9686 7.69402 12.8 8.125 12.8H17.875C18.306 12.8 18.7193 12.9686 19.024 13.2686C19.3288 13.5687 19.5 13.9757 19.5 14.4C19.5 14.8243 19.3288 15.2313 19.024 15.5314C18.7193 15.8314 18.306 16 17.875 16H8.125C7.69402 16 7.2807 15.8314 6.97595 15.5314C6.67121 15.2313 6.5 14.8243 6.5 14.4ZM6.5 20.8C6.5 20.3757 6.67121 19.9687 6.97595 19.6686C7.2807 19.3686 7.69402 19.2 8.125 19.2H13C13.431 19.2 13.8443 19.3686 14.149 19.6686C14.4538 19.9687 14.625 20.3757 14.625 20.8C14.625 21.2243 14.4538 21.6313 14.149 21.9314C13.8443 22.2314 13.431 22.4 13 22.4H8.125C7.69402 22.4 7.2807 22.2314 6.97595 21.9314C6.67121 21.6313 6.5 21.2243 6.5 20.8Z" fill="#005AF0"/>
</svg>
