<svg width="32" height="32" viewBox="0 0 32 32" fill="none" xmlns="http://www.w3.org/2000/svg">
<path d="M29 15.9998H21C20.7348 15.9998 20.4804 16.1051 20.2929 16.2927C20.1054 16.4802 20 16.7345 20 16.9998C20 19.2058 18.206 20.9998 16 20.9998C13.794 20.9998 12 19.2058 12 16.9998C12 16.7345 11.8946 16.4802 11.7071 16.2927C11.5196 16.1051 11.2652 15.9998 11 15.9998H3C2.73478 15.9998 2.48043 16.1051 2.29289 16.2927C2.10536 16.4802 2 16.7345 2 16.9998V24.9998C2 27.7558 4.242 29.9998 7 29.9998H25C27.758 29.9998 30 27.7558 30 24.9998V16.9998C30 16.7345 29.8946 16.4802 29.7071 16.2927C29.5196 16.1051 29.2652 15.9998 29 15.9998ZM28 24.9998C28 26.6538 26.654 27.9998 25 27.9998H7C5.346 27.9998 4 26.6538 4 24.9998V17.9998H10.084C10.3222 19.397 11.0465 20.665 12.1291 21.58C13.2116 22.4949 14.5826 22.9978 16 22.9998C17.4174 22.9978 18.7884 22.4949 19.8709 21.58C20.9535 20.665 21.6778 19.397 21.916 17.9998H28V24.9998ZM11.292 7.70776C11.1045 7.52024 10.9992 7.26593 10.9992 7.00076C10.9992 6.7356 11.1045 6.48129 11.292 6.29376L15.292 2.29376C15.4795 2.10629 15.7338 2.00098 15.999 2.00098C16.2642 2.00098 16.5185 2.10629 16.706 2.29376L20.706 6.29376C20.8935 6.48154 20.9987 6.73611 20.9986 7.00147C20.9984 7.26683 20.8928 7.52126 20.705 7.70876C20.5172 7.89627 20.2627 8.00151 19.9973 8.00132C19.7319 8.00113 19.4775 7.89554 19.29 7.70776L16.998 5.41576V7.00176C16.998 7.26698 16.8926 7.52133 16.7051 7.70887C16.5176 7.89641 16.2632 8.00176 15.998 8.00176C15.7328 8.00176 15.4784 7.89641 15.2909 7.70887C15.1034 7.52133 14.998 7.26698 14.998 7.00176V5.41576L12.706 7.70776C12.5185 7.89523 12.2642 8.00055 11.999 8.00055C11.7338 8.00055 11.4795 7.89523 11.292 7.70776ZM17 10.9998C17 11.265 16.8946 11.5193 16.7071 11.7069C16.5196 11.8944 16.2652 11.9998 16 11.9998C15.7348 11.9998 15.4804 11.8944 15.2929 11.7069C15.1054 11.5193 15 11.265 15 10.9998C15 10.7345 15.1054 10.4802 15.2929 10.2927C15.4804 10.1051 15.7348 9.99976 16 9.99976C16.2652 9.99976 16.5196 10.1051 16.7071 10.2927C16.8946 10.4802 17 10.7345 17 10.9998ZM17 14.9998C17 15.265 16.8946 15.5193 16.7071 15.7069C16.5196 15.8944 16.2652 15.9998 16 15.9998C15.7348 15.9998 15.4804 15.8944 15.2929 15.7069C15.1054 15.5193 15 15.265 15 14.9998C15 14.7345 15.1054 14.4802 15.2929 14.2927C15.4804 14.1051 15.7348 13.9998 16 13.9998C16.2652 13.9998 16.5196 14.1051 16.7071 14.2927C16.8946 14.4802 17 14.7345 17 14.9998Z" fill="#005AF0"/>
</svg>
