<svg width="32" height="32" viewBox="0 0 32 32" fill="none" xmlns="http://www.w3.org/2000/svg">
<path d="M16.0003 18.6666C16.264 18.6666 16.5218 18.5884 16.7411 18.4419C16.9604 18.2954 17.1312 18.0872 17.2322 17.8435C17.3331 17.5999 17.3595 17.3318 17.308 17.0732C17.2566 16.8145 17.1296 16.577 16.9431 16.3905C16.7567 16.204 16.5191 16.077 16.2604 16.0256C16.0018 15.9741 15.7337 16.0005 15.4901 16.1015C15.2464 16.2024 15.0382 16.3733 14.8917 16.5925C14.7452 16.8118 14.667 17.0696 14.667 17.3333C14.667 17.6869 14.8075 18.0261 15.0575 18.2761C15.3076 18.5261 15.6467 18.6666 16.0003 18.6666ZM22.667 18.6666C22.9307 18.6666 23.1885 18.5884 23.4078 18.4419C23.627 18.2954 23.7979 18.0872 23.8988 17.8435C23.9997 17.5999 24.0262 17.3318 23.9747 17.0732C23.9233 16.8145 23.7963 16.577 23.6098 16.3905C23.4233 16.204 23.1858 16.077 22.9271 16.0256C22.6685 15.9741 22.4004 16.0005 22.1567 16.1015C21.9131 16.2024 21.7049 16.3733 21.5584 16.5925C21.4119 16.8118 21.3337 17.0696 21.3337 17.3333C21.3337 17.6869 21.4741 18.0261 21.7242 18.2761C21.9742 18.5261 22.3134 18.6666 22.667 18.6666ZM16.0003 24C16.264 24 16.5218 23.9218 16.7411 23.7753C16.9604 23.6287 17.1312 23.4205 17.2322 23.1769C17.3331 22.9332 17.3595 22.6651 17.308 22.4065C17.2566 22.1479 17.1296 21.9103 16.9431 21.7238C16.7567 21.5373 16.5191 21.4104 16.2604 21.3589C16.0018 21.3075 15.7337 21.3339 15.4901 21.4348C15.2464 21.5357 15.0382 21.7066 14.8917 21.9259C14.7452 22.1451 14.667 22.4029 14.667 22.6666C14.667 23.0202 14.8075 23.3594 15.0575 23.6094C15.3076 23.8595 15.6467 24 16.0003 24ZM22.667 24C22.9307 24 23.1885 23.9218 23.4078 23.7753C23.627 23.6287 23.7979 23.4205 23.8988 23.1769C23.9997 22.9332 24.0262 22.6651 23.9747 22.4065C23.9233 22.1479 23.7963 21.9103 23.6098 21.7238C23.4233 21.5373 23.1858 21.4104 22.9271 21.3589C22.6685 21.3075 22.4004 21.3339 22.1567 21.4348C21.9131 21.5357 21.7049 21.7066 21.5584 21.9259C21.4119 22.1451 21.3337 22.4029 21.3337 22.6666C21.3337 23.0202 21.4741 23.3594 21.7242 23.6094C21.9742 23.8595 22.3134 24 22.667 24ZM9.33366 18.6666C9.59737 18.6666 9.85515 18.5884 10.0744 18.4419C10.2937 18.2954 10.4646 18.0872 10.5655 17.8435C10.6664 17.5999 10.6928 17.3318 10.6414 17.0732C10.5899 16.8145 10.4629 16.577 10.2765 16.3905C10.09 16.204 9.85242 16.077 9.59378 16.0256C9.33514 15.9741 9.06705 16.0005 8.82341 16.1015C8.57978 16.2024 8.37154 16.3733 8.22503 16.5925C8.07852 16.8118 8.00033 17.0696 8.00033 17.3333C8.00033 17.6869 8.1408 18.0261 8.39085 18.2761C8.6409 18.5261 8.98004 18.6666 9.33366 18.6666ZM25.3337 5.33329H24.0003V3.99996C24.0003 3.64634 23.8598 3.3072 23.6098 3.05715C23.3598 2.8071 23.0206 2.66663 22.667 2.66663C22.3134 2.66663 21.9742 2.8071 21.7242 3.05715C21.4741 3.3072 21.3337 3.64634 21.3337 3.99996V5.33329H10.667V3.99996C10.667 3.64634 10.5265 3.3072 10.2765 3.05715C10.0264 2.8071 9.68728 2.66663 9.33366 2.66663C8.98004 2.66663 8.6409 2.8071 8.39085 3.05715C8.1408 3.3072 8.00033 3.64634 8.00033 3.99996V5.33329H6.66699C5.60613 5.33329 4.58871 5.75472 3.83857 6.50487C3.08842 7.25501 2.66699 8.27243 2.66699 9.33329V25.3333C2.66699 26.3942 3.08842 27.4116 3.83857 28.1617C4.58871 28.9119 5.60613 29.3333 6.66699 29.3333H25.3337C26.3945 29.3333 27.4119 28.9119 28.1621 28.1617C28.9122 27.4116 29.3337 26.3942 29.3337 25.3333V9.33329C29.3337 8.27243 28.9122 7.25501 28.1621 6.50487C27.4119 5.75472 26.3945 5.33329 25.3337 5.33329ZM26.667 25.3333C26.667 25.6869 26.5265 26.0261 26.2765 26.2761C26.0264 26.5261 25.6873 26.6666 25.3337 26.6666H6.66699C6.31337 26.6666 5.97423 26.5261 5.72418 26.2761C5.47413 26.0261 5.33366 25.6869 5.33366 25.3333V13.3333H26.667V25.3333ZM26.667 10.6666H5.33366V9.33329C5.33366 8.97967 5.47413 8.64053 5.72418 8.39048C5.97423 8.14044 6.31337 7.99996 6.66699 7.99996H25.3337C25.6873 7.99996 26.0264 8.14044 26.2765 8.39048C26.5265 8.64053 26.667 8.97967 26.667 9.33329V10.6666ZM9.33366 24C9.59737 24 9.85515 23.9218 10.0744 23.7753C10.2937 23.6287 10.4646 23.4205 10.5655 23.1769C10.6664 22.9332 10.6928 22.6651 10.6414 22.4065C10.5899 22.1479 10.4629 21.9103 10.2765 21.7238C10.09 21.5373 9.85242 21.4104 9.59378 21.3589C9.33514 21.3075 9.06705 21.3339 8.82341 21.4348C8.57978 21.5357 8.37154 21.7066 8.22503 21.9259C8.07852 22.1451 8.00033 22.4029 8.00033 22.6666C8.00033 23.0202 8.1408 23.3594 8.39085 23.6094C8.6409 23.8595 8.98004 24 9.33366 24Z" fill="#005AF0"/>
</svg>
