<svg width="32" height="32" viewBox="0 0 32 32" fill="none" xmlns="http://www.w3.org/2000/svg">
<path d="M29 16H21C20.7348 16 20.4804 16.1054 20.2929 16.2929C20.1054 16.4804 20 16.7348 20 17C20 19.206 18.206 21 16 21C13.794 21 12 19.206 12 17C12 16.7348 11.8946 16.4804 11.7071 16.2929C11.5196 16.1054 11.2652 16 11 16H3C2.73478 16 2.48043 16.1054 2.29289 16.2929C2.10536 16.4804 2 16.7348 2 17V25C2 27.756 4.242 30 7 30H25C27.758 30 30 27.756 30 25V17C30 16.7348 29.8946 16.4804 29.7071 16.2929C29.5196 16.1054 29.2652 16 29 16ZM28 25C28 26.654 26.654 28 25 28H7C5.346 28 4 26.654 4 25V18H10.084C10.3222 19.3972 11.0465 20.6653 12.1291 21.5802C13.2116 22.4951 14.5826 22.998 16 23C17.4174 22.998 18.7884 22.4951 19.8709 21.5802C20.9535 20.6653 21.6778 19.3972 21.916 18H28V25ZM11.292 7.708C11.1045 7.52047 10.9992 7.26616 10.9992 7.001C10.9992 6.73584 11.1045 6.48153 11.292 6.294L15.292 2.294C15.4795 2.10653 15.7338 2.00121 15.999 2.00121C16.2642 2.00121 16.5185 2.10653 16.706 2.294L20.706 6.294C20.8935 6.48177 20.9987 6.73634 20.9986 7.00171C20.9984 7.26707 20.8928 7.52149 20.705 7.709C20.5172 7.89651 20.2627 8.00174 19.9973 8.00156C19.7319 8.00137 19.4775 7.89577 19.29 7.708L16.998 5.416V7.002C16.998 7.26722 16.8926 7.52157 16.7051 7.70911C16.5176 7.89664 16.2632 8.002 15.998 8.002C15.7328 8.002 15.4784 7.89664 15.2909 7.70911C15.1034 7.52157 14.998 7.26722 14.998 7.002V5.416L12.706 7.708C12.5185 7.89547 12.2642 8.00079 11.999 8.00079C11.7338 8.00079 11.4795 7.89547 11.292 7.708ZM17 11C17 11.2652 16.8946 11.5196 16.7071 11.7071C16.5196 11.8946 16.2652 12 16 12C15.7348 12 15.4804 11.8946 15.2929 11.7071C15.1054 11.5196 15 11.2652 15 11C15 10.7348 15.1054 10.4804 15.2929 10.2929C15.4804 10.1054 15.7348 10 16 10C16.2652 10 16.5196 10.1054 16.7071 10.2929C16.8946 10.4804 17 10.7348 17 11ZM17 15C17 15.2652 16.8946 15.5196 16.7071 15.7071C16.5196 15.8946 16.2652 16 16 16C15.7348 16 15.4804 15.8946 15.2929 15.7071C15.1054 15.5196 15 15.2652 15 15C15 14.7348 15.1054 14.4804 15.2929 14.2929C15.4804 14.1054 15.7348 14 16 14C16.2652 14 16.5196 14.1054 16.7071 14.2929C16.8946 14.4804 17 14.7348 17 15Z" fill="#B7B7B7"/>
</svg>
