<svg width="15" height="15" viewBox="0 0 15 15" fill="none" xmlns="http://www.w3.org/2000/svg">
<path d="M6.81152 1.5C9.74545 1.5 12.1239 3.8786 12.124 6.8125C12.124 8.09888 11.6661 9.2781 10.9053 10.1973L12.9785 12.2715C13.1738 12.4667 13.1738 12.7833 12.9785 12.9785C12.7832 13.1736 12.4667 13.1737 12.2715 12.9785L10.1982 10.9053C9.2788 11.667 8.09879 12.125 6.81152 12.125C3.87751 12.125 1.49902 9.74651 1.49902 6.8125C1.49916 3.8786 3.87759 1.5 6.81152 1.5ZM6.81152 2.5C4.42988 2.5 2.49916 4.43088 2.49902 6.8125C2.49902 9.19423 4.4298 11.125 6.81152 11.125C7.94902 11.125 8.98236 10.6835 9.75293 9.96387C9.77586 9.91997 9.80397 9.8777 9.84082 9.84082C9.87752 9.80412 9.9202 9.77681 9.96387 9.75391C10.6831 8.98342 11.124 7.94963 11.124 6.8125C11.1239 4.43088 9.19317 2.5 6.81152 2.5Z" fill="#8892A6"/>
</svg>
