<svg width="22" height="22" viewBox="0 0 22 22" fill="none" xmlns="http://www.w3.org/2000/svg">
<path d="M21.5416 15.5833L16.9583 20.1667L13.75 16.9583L15.125 15.5833L16.9583 17.4167L20.1666 14.2083L21.5416 15.5833ZM12.0083 18.2417C11.6416 18.3333 11.3666 18.3333 11 18.3333C6.96665 18.3333 3.66665 15.0333 3.66665 11C3.66665 6.96667 6.96665 3.66667 11 3.66667C15.0333 3.66667 18.3333 6.96667 18.3333 11C18.3333 11.3667 18.3333 11.6417 18.2416 12.0083C18.8833 12.1 19.4333 12.2833 19.9833 12.5583C20.075 12.0083 20.1666 11.55 20.1666 11C20.1666 5.95833 16.0416 1.83333 11 1.83333C5.95831 1.83333 1.83331 5.95833 1.83331 11C1.83331 16.0417 5.95831 20.1667 11 20.1667C11.55 20.1667 12.1 20.075 12.5583 19.9833C12.2833 19.525 12.1 18.8833 12.0083 18.2417ZM14.3 12.925L11.4583 11.275V6.41667H10.0833V11.9167L13.2916 13.8417C13.5666 13.475 13.9333 13.2 14.3 12.925Z" fill="#2563EB"/>
</svg>
