<svg width="16" height="18" viewBox="0 0 16 18" fill="none" xmlns="http://www.w3.org/2000/svg">
<path d="M8 0.5C8.34288 0.5 8.63586 0.59853 8.89648 0.796875V0.797852L8.90039 0.799805L14.9043 5.30273C15.0889 5.43811 15.2335 5.61012 15.3408 5.82422C15.4478 6.03773 15.5005 6.26059 15.5 6.49902V15.5C15.5 15.9162 15.3577 16.2605 15.0586 16.5596C14.7596 16.8585 14.416 17.0004 14.001 17H10C9.84307 17 9.73538 16.9523 9.64258 16.8594C9.57222 16.7888 9.52685 16.7096 9.50879 16.6084L9.5 16.499V11H6.5V16.5C6.5 16.6571 6.45217 16.7656 6.3584 16.8594C6.26467 16.9531 6.15671 17.0004 6.00098 17H2C1.58354 17 1.23963 16.8578 0.941406 16.5596C0.680392 16.2986 0.538542 16.0021 0.506836 15.6523L0.5 15.499V6.5C0.5 6.26121 0.553008 6.03805 0.660156 5.82422C0.767615 5.60981 0.912616 5.43808 1.09668 5.30273L1.09961 5.2998L7.09961 0.799805L7.10254 0.797852C7.36335 0.599141 7.6568 0.5 8 0.5ZM14.5 6.25L14.2998 6.09961L8.2998 1.59961L8 1.375L7.7002 1.59961L1.7002 6.09961L1.5 6.25V16H5.5V10.5C5.5 10.3431 5.54766 10.2354 5.64062 10.1426C5.71123 10.0722 5.79038 10.0268 5.8916 10.0088L6.00098 10H10C10.1571 10 10.2656 10.0478 10.3594 10.1416C10.4531 10.2353 10.5004 10.3433 10.5 10.499V16H14.5V6.25Z" fill="black" stroke="#C6CBD4"/>
</svg>
