<svg width="17" height="17" viewBox="0 0 17 17" fill="none" xmlns="http://www.w3.org/2000/svg">
<path d="M8.33333 10C8.49815 10 8.65927 9.95113 8.79631 9.85956C8.93335 9.76799 9.04016 9.63784 9.10323 9.48557C9.16631 9.3333 9.18281 9.16574 9.15065 9.00409C9.1185 8.84244 9.03913 8.69395 8.92259 8.57741C8.80604 8.46087 8.65756 8.3815 8.49591 8.34935C8.33426 8.31719 8.1667 8.33369 8.01443 8.39677C7.86216 8.45984 7.73201 8.56665 7.64044 8.70369C7.54887 8.84073 7.5 9.00185 7.5 9.16667C7.5 9.38768 7.5878 9.59964 7.74408 9.75592C7.90036 9.9122 8.11232 10 8.33333 10ZM12.5 10C12.6648 10 12.8259 9.95113 12.963 9.85956C13.1 9.76799 13.2068 9.63784 13.2699 9.48557C13.333 9.3333 13.3495 9.16574 13.3173 9.00409C13.2852 8.84244 13.2058 8.69395 13.0893 8.57741C12.9727 8.46087 12.8242 8.3815 12.6626 8.34935C12.5009 8.31719 12.3334 8.33369 12.1811 8.39677C12.0288 8.45984 11.8987 8.56665 11.8071 8.70369C11.7155 8.84073 11.6667 9.00185 11.6667 9.16667C11.6667 9.38768 11.7545 9.59964 11.9107 9.75592C12.067 9.9122 12.279 10 12.5 10ZM8.33333 13.3333C8.49815 13.3333 8.65927 13.2845 8.79631 13.1929C8.93335 13.1013 9.04016 12.9712 9.10323 12.8189C9.16631 12.6666 9.18281 12.4991 9.15065 12.3374C9.1185 12.1758 9.03913 12.0273 8.92259 11.9107C8.80604 11.7942 8.65756 11.7148 8.49591 11.6827C8.33426 11.6505 8.1667 11.667 8.01443 11.7301C7.86216 11.7932 7.73201 11.9 7.64044 12.037C7.54887 12.1741 7.5 12.3352 7.5 12.5C7.5 12.721 7.5878 12.933 7.74408 13.0893C7.90036 13.2455 8.11232 13.3333 8.33333 13.3333ZM12.5 13.3333C12.6648 13.3333 12.8259 13.2845 12.963 13.1929C13.1 13.1013 13.2068 12.9712 13.2699 12.8189C13.333 12.6666 13.3495 12.4991 13.3173 12.3374C13.2852 12.1758 13.2058 12.0273 13.0893 11.9107C12.9727 11.7942 12.8242 11.7148 12.6626 11.6827C12.5009 11.6505 12.3334 11.667 12.1811 11.7301C12.0288 11.7932 11.8987 11.9 11.8071 12.037C11.7155 12.1741 11.6667 12.3352 11.6667 12.5C11.6667 12.721 11.7545 12.933 11.9107 13.0893C12.067 13.2455 12.279 13.3333 12.5 13.3333ZM4.16667 10C4.33148 10 4.4926 9.95113 4.62964 9.85956C4.76668 9.76799 4.87349 9.63784 4.93657 9.48557C4.99964 9.3333 5.01614 9.16574 4.98399 9.00409C4.95183 8.84244 4.87247 8.69395 4.75592 8.57741C4.63938 8.46087 4.49089 8.3815 4.32924 8.34935C4.16759 8.31719 4.00004 8.33369 3.84776 8.39677C3.69549 8.45984 3.56534 8.56665 3.47378 8.70369C3.38221 8.84073 3.33333 9.00185 3.33333 9.16667C3.33333 9.38768 3.42113 9.59964 3.57741 9.75592C3.73369 9.9122 3.94565 10 4.16667 10ZM14.1667 1.66667H13.3333V0.833333C13.3333 0.61232 13.2455 0.400358 13.0893 0.244078C12.933 0.0877973 12.721 0 12.5 0C12.279 0 12.067 0.0877973 11.9107 0.244078C11.7545 0.400358 11.6667 0.61232 11.6667 0.833333V1.66667H5V0.833333C5 0.61232 4.9122 0.400358 4.75592 0.244078C4.59964 0.0877973 4.38768 0 4.16667 0C3.94565 0 3.73369 0.0877973 3.57741 0.244078C3.42113 0.400358 3.33333 0.61232 3.33333 0.833333V1.66667H2.5C1.83696 1.66667 1.20107 1.93006 0.732233 2.3989C0.263392 2.86774 0 3.50363 0 4.16667V14.1667C0 14.8297 0.263392 15.4656 0.732233 15.9344C1.20107 16.4033 1.83696 16.6667 2.5 16.6667H14.1667C14.8297 16.6667 15.4656 16.4033 15.9344 15.9344C16.4033 15.4656 16.6667 14.8297 16.6667 14.1667V4.16667C16.6667 3.50363 16.4033 2.86774 15.9344 2.3989C15.4656 1.93006 14.8297 1.66667 14.1667 1.66667ZM15 14.1667C15 14.3877 14.9122 14.5996 14.7559 14.7559C14.5996 14.9122 14.3877 15 14.1667 15H2.5C2.27899 15 2.06702 14.9122 1.91074 14.7559C1.75446 14.5996 1.66667 14.3877 1.66667 14.1667V6.66667H15V14.1667ZM15 5H1.66667V4.16667C1.66667 3.94565 1.75446 3.73369 1.91074 3.57741C2.06702 3.42113 2.27899 3.33333 2.5 3.33333H14.1667C14.3877 3.33333 14.5996 3.42113 14.7559 3.57741C14.9122 3.73369 15 3.94565 15 4.16667V5ZM4.16667 13.3333C4.33148 13.3333 4.4926 13.2845 4.62964 13.1929C4.76668 13.1013 4.87349 12.9712 4.93657 12.8189C4.99964 12.6666 5.01614 12.4991 4.98399 12.3374C4.95183 12.1758 4.87247 12.0273 4.75592 11.9107C4.63938 11.7942 4.49089 11.7148 4.32924 11.6827C4.16759 11.6505 4.00004 11.667 3.84776 11.7301C3.69549 11.7932 3.56534 11.9 3.47378 12.037C3.38221 12.1741 3.33333 12.3352 3.33333 12.5C3.33333 12.721 3.42113 12.933 3.57741 13.0893C3.73369 13.2455 3.94565 13.3333 4.16667 13.3333Z" fill="#C6CBD4"/>
</svg>
