<svg width="16" height="20" viewBox="0 0 16 20" fill="none" xmlns="http://www.w3.org/2000/svg">
<path d="M13.751 11.995C14.3474 11.9955 14.9192 12.2328 15.3407 12.6547C15.7622 13.0766 15.999 13.6486 15.999 14.245V15.163C15.999 15.736 15.82 16.2947 15.487 16.761C13.941 18.925 11.417 19.996 7.997 19.996C4.575 19.996 2.052 18.924 0.51 16.76C0.178126 16.294 -0.000150854 15.7361 9.57791e-08 15.164V14.244C0.000265099 13.6476 0.237298 13.0757 0.65901 12.654C1.08072 12.2323 1.65261 11.9953 2.249 11.995H13.751ZM7.996 0C8.65261 -9.78424e-09 9.30279 0.129329 9.90942 0.380602C10.516 0.631876 11.0672 1.00017 11.5315 1.46447C11.9958 1.92876 12.3641 2.47995 12.6154 3.08658C12.8667 3.69321 12.996 4.34339 12.996 5C12.996 5.65661 12.8667 6.30679 12.6154 6.91342C12.3641 7.52004 11.9958 8.07124 11.5315 8.53553C11.0672 8.99983 10.516 9.36812 9.90942 9.6194C9.30279 9.87067 8.65261 10 7.996 10C6.66992 10 5.39815 9.47322 4.46047 8.53553C3.52278 7.59785 2.996 6.32608 2.996 5C2.996 3.67392 3.52278 2.40215 4.46047 1.46447C5.39815 0.526784 6.66992 0 7.996 0Z" fill="#429FF7"/>
</svg>
