<svg width="17" height="21" viewBox="0 0 17 21" fill="none" xmlns="http://www.w3.org/2000/svg">
<path d="M14.1509 12.3949C14.7473 12.3954 15.3191 12.6327 15.7406 13.0546C16.1621 13.4765 16.3989 14.0485 16.3989 14.6449V15.2199C16.3989 16.1139 16.0789 16.9789 15.4989 17.6579C13.9289 19.4909 11.5419 20.3959 8.3959 20.3959C5.2499 20.3959 2.8639 19.4909 1.2979 17.6559C0.71851 16.9773 0.40011 16.1142 0.399902 15.2219V14.6439C0.400167 14.0475 0.6372 13.4756 1.05891 13.0539C1.48062 12.6322 2.05251 12.3952 2.6489 12.3949H14.1509ZM14.1509 13.8949H2.6479C2.44899 13.8949 2.25822 13.9739 2.11757 14.1146C1.97692 14.2552 1.8979 14.446 1.8979 14.6449V15.2219C1.8979 15.7569 2.0899 16.2749 2.4379 16.6819C3.6909 18.1509 5.6579 18.8959 8.3949 18.8959C11.1339 18.8959 13.1009 18.1509 14.3579 16.6829C14.7066 16.2752 14.8981 15.7564 14.8979 15.2199V14.6439C14.8976 14.4455 14.8188 14.2553 14.6786 14.1149C14.5384 13.9745 14.3493 13.8954 14.1509 13.8949ZM8.3959 0.399902C9.05251 0.399902 9.70269 0.529231 10.3093 0.780504C10.9159 1.03178 11.4671 1.40008 11.9314 1.86437C12.3957 2.32866 12.764 2.87986 13.0153 3.48649C13.2666 4.09311 13.3959 4.74329 13.3959 5.3999C13.3959 6.05651 13.2666 6.70669 13.0153 7.31332C12.764 7.91995 12.3957 8.47114 11.9314 8.93544C11.4671 9.39973 10.9159 9.76803 10.3093 10.0193C9.70269 10.2706 9.05251 10.3999 8.3959 10.3999C7.06982 10.3999 5.79805 9.87312 4.86037 8.93544C3.92269 7.99775 3.3959 6.72598 3.3959 5.3999C3.3959 4.07382 3.92269 2.80205 4.86037 1.86437C5.79805 0.926687 7.06982 0.399902 8.3959 0.399902ZM8.3959 1.8999C7.93628 1.8999 7.48115 1.99043 7.05651 2.16632C6.63187 2.34222 6.24603 2.60002 5.92103 2.92503C5.59602 3.25003 5.33821 3.63587 5.16232 4.06051C4.98643 4.48515 4.8959 4.94028 4.8959 5.3999C4.8959 5.85953 4.98643 6.31465 5.16232 6.73929C5.33821 7.16393 5.59602 7.54977 5.92103 7.87478C6.24603 8.19978 6.63187 8.45759 7.05651 8.63348C7.48115 8.80937 7.93628 8.8999 8.3959 8.8999C9.32416 8.8999 10.2144 8.53115 10.8708 7.87478C11.5272 7.2184 11.8959 6.32816 11.8959 5.3999C11.8959 4.47164 11.5272 3.58141 10.8708 2.92503C10.2144 2.26865 9.32416 1.8999 8.3959 1.8999Z" fill="#C6CBD4" stroke="#C6CBD4" stroke-width="0.8"/>
</svg>
