<svg width="20" height="20" viewBox="0 0 20 20" fill="none" xmlns="http://www.w3.org/2000/svg">
<path d="M10 16.6667C8.13893 16.6667 6.56254 16.0209 5.27087 14.7292C3.97921 13.4375 3.33337 11.8612 3.33337 10C3.33337 8.13893 3.97921 6.56254 5.27087 5.27087C6.56254 3.97921 8.13893 3.33337 10 3.33337C10.9584 3.33337 11.875 3.53115 12.75 3.92671C13.625 4.32226 14.375 4.88837 15 5.62504V3.33337H16.6667V9.16671H10.8334V7.50004H14.3334C13.8889 6.72226 13.2814 6.11115 12.5109 5.66671C11.7403 5.22226 10.9034 5.00004 10 5.00004C8.61115 5.00004 7.4306 5.48615 6.45837 6.45837C5.48615 7.4306 5.00004 8.61115 5.00004 10C5.00004 11.3889 5.48615 12.5695 6.45837 13.5417C7.4306 14.5139 8.61115 15 10 15C11.0695 15 12.0348 14.6945 12.8959 14.0834C13.757 13.4723 14.3612 12.6667 14.7084 11.6667H16.4584C16.0695 13.1389 15.2778 14.3403 14.0834 15.2709C12.8889 16.2014 11.5278 16.6667 10 16.6667Z" fill="black"/>
</svg>
