<svg width="20" height="20" viewBox="0 0 20 20" fill="none" xmlns="http://www.w3.org/2000/svg">
<path d="M10 0.400391C15.3019 0.400391 19.5996 4.69807 19.5996 10C19.5996 15.3019 15.3019 19.5996 10 19.5996C4.69807 19.5996 0.400391 15.3019 0.400391 10C0.400391 4.69807 4.69807 0.400391 10 0.400391Z" stroke="#8892A6" stroke-width="0.8"/>
<path fill-rule="evenodd" clip-rule="evenodd" d="M11.4144 13.3841C11.2913 13.5278 11.0805 13.5395 10.9437 13.4101L7.61034 10.2601C7.54011 10.1937 7.5 10.0992 7.5 9.99996C7.5 9.90074 7.54011 9.80618 7.61035 9.73981L10.9437 6.58985C11.0805 6.46054 11.2913 6.47219 11.4144 6.61586C11.5376 6.75954 11.5265 6.98084 11.3897 7.11015L8.33161 9.99996L11.3897 12.8899C11.5265 13.0192 11.5376 13.2405 11.4144 13.3841Z" fill="#8892A6"/>
</svg>
